<svg width="150" height="150" viewBox="0 0 150 150" fill="none" xmlns="http://www.w3.org/2000/svg">
	<path fill-rule="evenodd" clip-rule="evenodd" d="M16.3778 38.6065L74.02 4.20709L134.298 38.785L119.095 47.1462L77 22.9398V22.3899H76.0439L74.6203 21.5713L31.8861 47.136L16.3778 38.6065ZM34 96.1487V50.5326L73 27.2018V45.7819L50 59.6513V87.3487L34 96.1487ZM77 45.7169V27.5539L117 50.5555V97.0238L101 87.4238V59.6283L77 45.7169ZM30 50.6637L14 41.8638V111.73L72 144.94V125.681L30 101.574V50.6637ZM121 101.596V50.6637L136.5 42.1388V111.708L76 145.006V126.424L121 101.596ZM75 46.8693L75.0356 46.8899L75 46.9114V46.8693ZM94.9796 60.762L75.0557 49.2133L55.4695 61.024L75 72.4168L94.9796 60.762ZM31.9279 49.4416L32 49.3985V49.4812L31.9279 49.4416ZM119 49.3985L119.074 49.4408L119 49.4812V49.3985ZM77 98.5089V75.881L97 64.2143V87.3861L77 98.5089ZM54 87.4088V64.7976L73 75.881V98.4016L54 87.4088ZM51.9725 88.5464L52 88.5312V88.5623L51.9725 88.5464ZM99 88.5623V88.5561L99.0053 88.5593L99 88.5623ZM74.6597 122.595L35.2957 100.001L51.9476 90.8426L75.0161 104.189L98.9674 90.8689L114.87 100.41L74.6597 122.595ZM74 125.243V124.522L74.6403 124.89L74 125.243Z" fill="#0A0D1E"/>
</svg>
